<?xml version="1.0" encoding="utf-8"?>
<!-- Generator: Adobe Illustrator 26.4.1, SVG Export Plug-In . SVG Version: 6.00 Build 0)  -->
<svg version="1.1" id="Capa_1" xmlns="http://www.w3.org/2000/svg" xmlns:xlink="http://www.w3.org/1999/xlink" x="0px" y="0px"
	 viewBox="0 0 72 72" style="enable-background:new 0 0 72 72;" xml:space="preserve">
<style type="text/css">
	.st0{fill:#FFFFFF;}
</style>
<g transform="matrix(0.49998003244400024,0,0,0.49998003244400024,16.243000030517578,16)">
	<g transform="matrix(2,0,0,2,0,0)">
		<path class="st0" d="M23.9,34.2c0-1.2,0.3-2.5,1-3.5l6.4-10.3c1.3-2.1,3.3-3.6,5.7-4.3l6.7-1.9V-1.5c-3.7,0-7.4-0.6-10.9-1.8L28-5
			c-3-1-6.2-1.5-9.4-1.5H5.7c-2.7,0-5,2.2-5,5v1.7l-1.3,1c-1.2,0.9-2,2.4-2,4c0,0.3,0,0.6,0.1,0.9l0.3,1.5l-0.9,1.2
			c-0.7,0.8-1.1,1.9-1.1,3.1s0.4,2.2,1.1,3.1l0.9,1.2l-0.3,1.5c-0.1,0.3-0.1,0.6-0.1,0.9c0,2.7,2.2,5,5,5h13.5l-1.1,4.1
			c-0.5,1.8-0.8,3.9-0.8,5.8c0,2.6,0.6,5.9,1.3,8.9c0.6,2.5,3,4.3,5.9,4.3h2.8V34.2z M30.5,48.2c0,2.7-2.2,5-5,5h-4.4
			c-5.7,0-10.9-3.6-12.3-9.5c-0.7-3.2-1.5-7.1-1.5-10.4c0-1.1,0.1-2.2,0.2-3.3H2.4c-6.4,0-11.6-5.2-11.6-11.6c0-0.2,0-0.4,0-0.6
			c-1.1-1.8-1.7-3.8-1.7-6s0.6-4.3,1.7-6c0-0.2,0-0.4,0-0.6c0-3.2,1.3-6.1,3.4-8.2c0.8-5.7,5.6-10,11.5-10h12.9
			c3.9,0,7.8,0.6,11.5,1.9L35-9.6c2.9,1,5.9,1.5,8.9,1.5c3.6,0,6.5,2.9,6.5,6.5v15.9c0,3-2,5.6-4.8,6.4l-6.7,1.9
			c-0.8,0.2-1.5,0.7-1.9,1.4l-6.4,10.3V48.2z"/>
	</g>
</g>
</svg>
