<?xml version="1.0" encoding="utf-8"?>
<!-- Generator: Adobe Illustrator 26.4.1, SVG Export Plug-In . SVG Version: 6.00 Build 0)  -->
<svg version="1.1" id="Capa_1" xmlns="http://www.w3.org/2000/svg" xmlns:xlink="http://www.w3.org/1999/xlink" x="0px" y="0px"
	 viewBox="0 0 72 72" style="enable-background:new 0 0 72 72;" xml:space="preserve">
<style type="text/css">
	.st0{fill:#FFFFFF;}
</style>
<g>
	<path class="st0" d="M46.8,3.2c-3.9-1.3-8.1-2-12.3-2H17.6c-3.5,0-6.5,2.9-6.5,6.5V10l-1.7,1.3c-1.6,1.2-2.6,3.1-2.6,5.2
		c0,0.4,0,0.8,0.1,1.2l0.4,2l-1.2,1.6c-0.9,1-1.4,2.5-1.4,4.1c0,1.6,0.5,2.9,1.4,4.1l1.2,1.6l-0.4,2c-0.1,0.4-0.1,0.8-0.1,1.2
		c0,3.5,2.9,6.5,6.5,6.5H31l-1.4,5.4c-0.7,2.4-1,5.1-1,7.6c0,3.4,0.8,7.7,1.7,11.6c0.8,3.3,3.9,5.6,7.7,5.6h3.7V54.4h-0.1
		c0-1.6,0.4-3.3,1.3-4.6l8.4-13.5c1.7-2.7,4.3-4.7,7.4-5.6l8.8-2.5V7.8c-4.8,0-9.7-0.8-14.2-2.4L46.8,3.2z"/>
</g>
</svg>
