<?xml version="1.0" encoding="utf-8"?>
<!-- Generator: Adobe Illustrator 26.4.1, SVG Export Plug-In . SVG Version: 6.00 Build 0)  -->
<svg version="1.1" id="Capa_1" xmlns="http://www.w3.org/2000/svg" xmlns:xlink="http://www.w3.org/1999/xlink" x="0px" y="0px"
	 viewBox="0 0 373.2 363.9" style="enable-background:new 0 0 373.2 363.9;" xml:space="preserve">
<style type="text/css">
	.st0{fill:#FFFFFF;}
</style>
<g>
	<path class="st0" d="M218.8,363.8c52.1-4.1,97.7-46.5,121.2-80.2h-53.8C273.9,315.2,235.8,352.4,218.8,363.8z"/>
	<path class="st0" d="M154.4,363.8c-52.1-4.1-97.7-46.5-121.2-80.2h53.8C99.3,315.2,137.4,352.4,154.4,363.8z"/>
	<path class="st0" d="M218.8,0.1c52.1,4.1,97.7,46.5,121.2,80.2h-53.8C273.9,48.7,235.8,11.4,218.8,0.1z"/>
	<g>
		<path class="st0" d="M93.7,171.1h82.5v-69.2h-71.4C98.9,121.8,94.9,144.7,93.7,171.1z"/>
		<path class="st0" d="M104.7,262h71.6v-69.2H93.7C94.8,219,98.8,242.1,104.7,262z"/>
		<path class="st0" d="M138.9,38.2c-8.4,11.4-16.8,25.3-24.1,42h61.4V0c-1.8,1.4-3.9,2.9-6.3,4.9C161.6,11.9,150.3,22.8,138.9,38.2z
			"/>
		<path class="st0" d="M176.3,363.8v-80.1h-61.4C134.8,329.2,163.2,354.1,176.3,363.8z"/>
		<path class="st0" d="M79,101.9H18.3C8.1,123.1,1.8,146.4,0,171.1h69.1C70,145.4,73.6,122.3,79,101.9z"/>
		<path class="st0" d="M154.4,0C102.3,4.1,56.8,46.6,33.3,80.2h53.8C99.3,48.7,137.4,11.4,154.4,0z"/>
		<path class="st0" d="M199.9,0v80.2v0h61.4C241.3,34.7,213,9.8,199.9,0z"/>
		<path class="st0" d="M69.1,192.8H0c1.8,24.7,8.2,48,18.3,69.2H79C73.6,241.6,70,218.5,69.1,192.8z"/>
		<path class="st0" d="M282.4,192.8h-82.5V262h71.4C277.3,242.1,281.3,219.1,282.4,192.8z"/>
		<path class="st0" d="M304.1,171.1h69c-1.8-24.7-8.1-48-18.3-69.2h-60.8C299.6,122.3,303.1,145.4,304.1,171.1z"/>
		<path class="st0" d="M271.5,101.9h-71.6v69.2h82.6C281.4,144.9,277.4,121.8,271.5,101.9z"/>
		<path class="st0" d="M294.2,262h60.7c10.1-21.2,16.5-44.6,18.3-69.2h-69C303.1,218.5,299.6,241.6,294.2,262z"/>
		<path class="st0" d="M199.9,283.7v80.2c1.8-1.4,3.9-2.9,6.3-4.9c8.4-7,19.7-17.9,31-33.3c8.4-11.4,16.8-25.3,24.1-42L199.9,283.7
			L199.9,283.7z"/>
	</g>
</g>
</svg>
