<?xml version="1.0" encoding="utf-8"?>
<!-- Generator: Adobe Illustrator 26.4.1, SVG Export Plug-In . SVG Version: 6.00 Build 0)  -->
<svg version="1.1" id="Capa_1" xmlns="http://www.w3.org/2000/svg" xmlns:xlink="http://www.w3.org/1999/xlink" x="0px" y="0px"
	 viewBox="0 0 72 72" style="enable-background:new 0 0 72 72;" xml:space="preserve">
<style type="text/css">
	.st0{fill:#FFFFFF;}
</style>
<g transform="matrix(0.49998003244400024,0,0,0.49998003244400024,16.243000030517578,16)">
	<g transform="matrix(2,0,0,2,0,0)">
		<path class="st0" d="M15.6,6c0,1.2-0.3,2.5-1,3.5L8.2,19.8c-1.3,2.1-3.3,3.6-5.7,4.3L-4.2,26v15.7c3.7,0,7.4,0.6,10.9,1.8l4.8,1.7
			c3,1,6.2,1.5,9.4,1.5h12.9c2.7,0,5-2.2,5-5V40l1.3-1c1.2-0.9,2-2.4,2-4c0-0.3,0-0.6-0.1-0.9l-0.3-1.5l0.9-1.2
			c0.7-0.8,1.1-1.9,1.1-3.1s-0.4-2.2-1.1-3.1L41.7,24l0.3-1.5c0.1-0.3,0.1-0.6,0.1-0.9c0-2.7-2.2-5-5-5H23.6l1.1-4.1
			c0.5-1.8,0.8-3.9,0.8-5.8c0-2.6-0.6-5.9-1.3-8.9c-0.6-2.5-3-4.3-5.9-4.3h-2.8L15.6,6L15.6,6z M9-8c0-2.7,2.2-5,5-5h4.4
			c5.7,0,10.9,3.6,12.3,9.5c0.7,3.2,1.5,7.1,1.5,10.4c0,1.1-0.1,2.2-0.2,3.3h5.1c6.4,0,11.6,5.2,11.6,11.6c0,0.2,0,0.4,0,0.6
			c1.1,1.8,1.7,3.8,1.7,6s-0.6,4.3-1.7,6c0,0.2,0,0.4,0,0.6c0,3.2-1.3,6.1-3.4,8.2c-0.8,5.7-5.6,10-11.5,10H20.9
			c-3.9,0-7.8-0.6-11.5-1.9l-4.9-1.5c-2.9-1-5.9-1.5-8.9-1.5c-3.6,0-6.5-2.9-6.5-6.5V25.9c0-3,2-5.6,4.8-6.4l6.7-1.9
			c0.8-0.2,1.5-0.7,1.9-1.4L8.9,5.9V-8H9z"/>
	</g>
</g>
</svg>
