<?xml version="1.0" encoding="utf-8"?>
<!-- Generator: Adobe Illustrator 26.4.1, SVG Export Plug-In . SVG Version: 6.00 Build 0)  -->
<svg version="1.1" id="Capa_1" xmlns="http://www.w3.org/2000/svg" xmlns:xlink="http://www.w3.org/1999/xlink" x="0px" y="0px"
	 viewBox="0 0 72 72" style="enable-background:new 0 0 72 72;" xml:space="preserve">
<style type="text/css">
	.st0{fill:#FFFFFF;}
</style>
<g>
	<path class="st0" d="M64.6,41.1l0.4-2c0.1-0.4,0.1-0.8,0.1-1.2c0-3.5-2.9-6.5-6.5-6.5H41l1.4-5.3c0.7-2.3,1-5.1,1-7.5
		c0-3.4-0.8-7.7-1.7-11.6c-0.8-3.3-3.9-5.6-7.7-5.6h-3.6l0.1,16.3c0,1.6-0.4,3.3-1.3,4.6L21,35.6c-1.7,2.7-4.3,4.7-7.4,5.6l-8.7,2.5
		v20.4c4.8,0,9.6,0.8,14.2,2.3l6.2,2.2c3.9,1.3,8.1,2,12.2,2h16.8c3.5,0,6.5-2.9,6.5-6.5v-2.2l1.7-1.3c1.6-1.2,2.6-3.1,2.6-5.2
		c0-0.4,0-0.8-0.1-1.2l-0.4-2l1.2-1.6c0.9-1,1.4-2.5,1.4-4c0-1.6-0.5-2.9-1.4-4L64.6,41.1z"/>
</g>
</svg>
