<?xml version="1.0" encoding="utf-8"?>
<!-- Generator: Adobe Illustrator 26.4.1, SVG Export Plug-In . SVG Version: 6.00 Build 0)  -->
<svg version="1.1" id="Capa_1" xmlns="http://www.w3.org/2000/svg" xmlns:xlink="http://www.w3.org/1999/xlink" x="0px" y="0px"
	 viewBox="0 0 72 72" style="enable-background:new 0 0 72 72;" xml:space="preserve">
<style type="text/css">
	.st0{fill:#FFFFFF;}
</style>
<g>
	<path class="st0" d="M28.5,19.1 M37.6,34.6c13.7-1,11.5,10.2,11.5,10.2c4.6,4.4,0.2,10.8,0.2,10.8c1.2,2.5-0.8,5.2-0.8,5.2h3.4h7.8
		c3.1,0,5.6-2.6,5.6-5.6v-1.9l1.5-1.2c1.4-1,2.2-2.7,2.2-4.5c0-0.4-0.1-0.6-0.1-1l-0.3-1.7l1-1.3c0.8-1,1.2-2.2,1.2-3.5
		c0-1.3-0.4-2.4-1.2-3.5l-1-1.3l0.3-1.7c0.1-0.4,0.1-0.6,0.1-1c0-3.1-2.6-5.6-5.6-5.6H48.3l1.2-4.6c0.6-2.4,0.9-4.6,0.9-6.5
		c0-2.4-0.5-5.9-1.4-10C48.3,3.1,45.6,1,42.4,1h-3.1v14c0,1.2-0.3,2.3-0.8,3.3l-5.9,11.9c-0.1,0.3-1.9,4.4-1.9,4.4H37.6z M51.1,62.6
		 M30.6,18.7"/>
	<path class="st0" d="M45.7,45.6l0.3-1.7c0-0.4,0.1-0.6,0.1-1c0-3.1-2.6-5.6-5.6-5.6H25.1l1.2-4.6c0.6-2.4,0.9-4.6,0.9-6.5
		c0-2.4-0.5-5.9-1.4-10c-0.6-2.8-3.3-4.9-6.5-4.9h-3.1v14c0,1.2-0.3,2.3-0.8,3.3L9.5,40.4c-1,2.2-2.8,3.9-5,5L1.3,47L1.1,65.6
		c2.3,0.3,4.6,0.8,6.8,1.7l3.1,1.3c3.9,1.7,8,2.4,12.2,2.4h13.5c3.1,0,5.6-2.6,5.6-5.6v-1.9l1.5-1.2c1.4-1,2.2-2.7,2.2-4.5
		c0-0.4,0-0.6-0.1-1l-0.3-1.7l1-1.3c0.8-1,1.2-2.2,1.2-3.5c0-1.3-0.4-2.4-1.2-3.5L45.7,45.6z"/>
</g>
</svg>
