<?xml version="1.0" encoding="utf-8"?>
<!-- Generator: Adobe Illustrator 26.4.1, SVG Export Plug-In . SVG Version: 6.00 Build 0)  -->
<svg version="1.1" id="Capa_1" xmlns="http://www.w3.org/2000/svg" xmlns:xlink="http://www.w3.org/1999/xlink" x="0px" y="0px"
	 viewBox="0 0 72 72" style="enable-background:new 0 0 72 72;" xml:space="preserve">
<style type="text/css">
	.st0{fill:#FFFFFF;}
</style>
<g>
	<path class="st0" d="M34.5,70.9H24.1c-4.1,0-8-0.8-11.8-2.4l-2.4-1c-1.4-0.6-2.9-0.9-4.5-0.9c-2.4,0-4.3-1.9-4.3-4.3V46.5
		c0-2.2,1.2-4.2,3.2-5.2l2.5-1.2c0.6-0.3,1-0.7,1.3-1.3l4.6-9.3V17.1c0-2.4,2-4.4,4.4-4.4H21c5.2,0,9.7,3.4,10.8,8.3
		c0.9,3.7,1.3,6.7,1.3,9.1c0,0.9-0.1,1.9-0.2,2.9h4.6c5.6,0,10.2,4.6,10.2,10.2c0,0.2,0,0.4,0,0.5c1,1.6,1.5,3.4,1.5,5.3
		c0,1.9-0.5,3.7-1.5,5.3c0,0.2,0,0.4,0,0.5c0,2.7-1.1,5.3-3,7.2C43.9,67.1,39.7,70.9,34.5,70.9z M6.9,60.8c1.8,0.2,3.6,0.6,5.3,1.3
		l2.4,1c3,1.3,6.2,1.9,9.5,1.9h10.5c2.4,0,4.4-2,4.4-4.4v-1.5l1.2-0.9c1.1-0.8,1.7-2.1,1.7-3.5c0-0.3,0-0.5-0.1-0.8l-0.2-1.3l0.8-1
		c0.6-0.8,0.9-1.7,0.9-2.7S43,47,42.4,46.2l-0.8-1l0.2-1.3c0-0.3,0.1-0.5,0.1-0.8c0-2.4-2-4.4-4.4-4.4H25.6l0.9-3.6
		c0.5-1.9,0.7-3.6,0.7-5.1c0-1.9-0.4-4.6-1.1-7.8c-0.5-2.2-2.6-3.8-5.1-3.8h-2.4v10.9c0,0.9-0.2,1.8-0.6,2.6l-4.6,9.3
		c-0.8,1.7-2.2,3-3.9,3.9L7,46.3L6.9,60.8z"/>
	<g>
		<path class="st0" d="M70.9,37.5c0-1.9-0.5-3.7-1.5-5.3c0-0.2,0-0.4,0-0.5c0-5.6-4.6-10.2-10.2-10.2h-4.6c0.1-1,0.2-2,0.2-2.9
			c0-2.4-0.4-5.5-1.3-9.1c-1.1-5-5.5-8.4-10.7-8.4h-3.9c-2.4,0-4.4,2-4.4,4.4v12.4l-1.2,2.4c0,0.1,0.1,0.3,0.1,0.4
			c0.9,3.8,1.3,7,1.3,9.5l0,0c0.1-0.2,0.2-0.3,0.3-0.5l4.6-9.3c0.4-0.8,0.6-1.7,0.6-2.6V6.9h2.4c2.5,0,4.6,1.6,5.1,3.8
			c0.7,3.2,1.1,5.9,1.1,7.8c0,1.5-0.2,3.2-0.7,5.1l-0.9,3.6H59c2.4,0,4.4,2,4.4,4.4c0,0.3,0,0.5-0.1,0.8l-0.2,1.3l0.8,1
			c0.6,0.8,0.9,1.7,0.9,2.7s-0.3,1.9-0.9,2.7l-0.8,1l0.2,1.3c0,0.3,0.1,0.5,0.1,0.8c0,1.4-0.6,2.7-1.7,3.5l-1.2,0.9v1.5
			c0,2.4-2,4.4-4.4,4.4H50c-0.2,0.5-0.4,0.9-0.6,1.3v0.1c0,1.5-0.3,3-0.8,4.4h7.8c5.1,0,9.4-3.8,10.1-8.8c1.9-1.9,3-4.5,3-7.2
			c0-0.2,0-0.4,0-0.5C70.4,41.1,70.9,39.3,70.9,37.5z"/>
	</g>
</g>
</svg>
